<svg width="139" height="32" fill="none" xmlns="http://www.w3.org/2000/svg"><rect width="32" height="32" rx="16" fill="#151718"/><path d="M6.857 16c1.524-3.048 3.048-4.571 4.572-4.571 1.523 0 3.047 1.523 4.571 4.571 1.524 3.048 3.048 4.571 4.572 4.571 1.523 0 3.047-1.523 4.57-4.571" stroke="#ECEDEE" stroke-linecap="round"/><path d="M46.78 24h-2.04l-4.02-12h1.968l3.096 9.156L48.844 12h2.076l3.072 9.156L57.052 12h1.992l-4.02 12h-2.052l-3.108-9.24L46.78 24Zm23.386-12h2.016v12h-2.016l-.084-2.028a4.592 4.592 0 0 1-1.56 1.692c-.656.432-1.44.648-2.352.648-.88 0-1.704-.164-2.472-.492a6.708 6.708 0 0 1-2.04-1.38 6.532 6.532 0 0 1-1.368-2.04 6.257 6.257 0 0 1-.492-2.484c0-.856.16-1.664.48-2.424.32-.76.764-1.424 1.332-1.992a6.254 6.254 0 0 1 1.992-1.344 5.996 5.996 0 0 1 2.424-.492c.944 0 1.772.224 2.484.672a5.287 5.287 0 0 1 1.728 1.716L70.166 12Zm-4.032 10.356c.792 0 1.476-.192 2.052-.576a3.823 3.823 0 0 0 1.344-1.584c.32-.664.48-1.396.48-2.196 0-.816-.16-1.552-.48-2.208a3.824 3.824 0 0 0-1.356-1.572c-.576-.392-1.256-.588-2.04-.588-.792 0-1.512.196-2.16.588A4.337 4.337 0 0 0 61.862 18c0 .808.196 1.544.588 2.208.392.656.912 1.18 1.56 1.572a4.09 4.09 0 0 0 2.124.576ZM80.493 24h-2.58l-4.38-12.024h2.147l3.516 9.684 3.517-9.684h2.148L80.493 24Zm11.133.312a5.607 5.607 0 0 1-3.024-.852 6.388 6.388 0 0 1-2.172-2.28c-.536-.96-.804-2.02-.804-3.18 0-.88.156-1.7.468-2.46.312-.768.74-1.44 1.284-2.016a6.022 6.022 0 0 1 1.92-1.368 5.602 5.602 0 0 1 2.328-.492c.904 0 1.732.184 2.484.552a5.61 5.61 0 0 1 1.944 1.512c.544.648.948 1.4 1.212 2.256.272.856.372 1.772.3 2.748h-9.792c.096.68.32 1.288.672 1.824.352.528.8.948 1.344 1.26a3.76 3.76 0 0 0 1.836.48c.72 0 1.372-.184 1.956-.552a4.232 4.232 0 0 0 1.416-1.536l2.052.48a6.324 6.324 0 0 1-2.172 2.616 5.57 5.57 0 0 1-3.252 1.008Zm-3.912-7.164h7.824a3.93 3.93 0 0 0-.648-1.836 4.252 4.252 0 0 0-1.404-1.344 3.587 3.587 0 0 0-1.86-.504 3.59 3.59 0 0 0-1.848.492 4.175 4.175 0 0 0-1.392 1.332 4.372 4.372 0 0 0-.672 1.86Zm22.365-.612V24h-2.016v-7.02a3.17 3.17 0 0 0-.444-1.656 3.282 3.282 0 0 0-1.188-1.176 3.17 3.17 0 0 0-1.656-.444c-.6 0-1.152.148-1.656.444-.496.288-.892.68-1.188 1.176a3.17 3.17 0 0 0-.444 1.656V24h-2.016V6h2.016v7.5a4.58 4.58 0 0 1 1.608-1.332 4.52 4.52 0 0 1 2.112-.504c.896 0 1.712.22 2.448.66a4.812 4.812 0 0 1 1.764 1.752c.44.736.66 1.556.66 2.46Zm1.92 2.904V12h2.016v6.996c0 .608.148 1.16.444 1.656a3.38 3.38 0 0 0 1.188 1.188 3.28 3.28 0 0 0 1.656.432c.608 0 1.156-.144 1.644-.432a3.38 3.38 0 0 0 1.188-1.188 3.17 3.17 0 0 0 .444-1.656V12h2.016l.012 12h-2.016l-.012-1.524a4.699 4.699 0 0 1-1.608 1.344 4.584 4.584 0 0 1-2.1.492 4.81 4.81 0 0 1-2.46-.648 5.034 5.034 0 0 1-1.764-1.764c-.432-.736-.648-1.556-.648-2.46Zm19.232-7.776c1.168 0 2.228.284 3.18.852a6.421 6.421 0 0 1 2.292 2.292c.568.952.852 2.012.852 3.18 0 .872-.164 1.692-.492 2.46a6.427 6.427 0 0 1-1.368 2.016 6.346 6.346 0 0 1-2.016 1.356 6.111 6.111 0 0 1-2.448.492c-.928 0-1.736-.216-2.424-.648a5.003 5.003 0 0 1-1.632-1.716V24h-2.016V6h2.016v8.028a4.897 4.897 0 0 1 1.632-1.704c.688-.44 1.496-.66 2.424-.66Zm-.024 10.68c.792 0 1.512-.196 2.16-.588a4.416 4.416 0 0 0 1.548-1.572 4.308 4.308 0 0 0 .576-2.196c0-.816-.196-1.552-.588-2.208a4.385 4.385 0 0 0-1.56-1.572 4.049 4.049 0 0 0-2.136-.588c-.784 0-1.468.196-2.052.588a3.944 3.944 0 0 0-1.344 1.584 5.099 5.099 0 0 0-.468 2.196c0 .808.156 1.544.468 2.208.32.656.772 1.18 1.356 1.572.584.384 1.264.576 2.04.576Z" fill="#151718"/></svg>