<svg width="141" height="32" fill="none" xmlns="http://www.w3.org/2000/svg"><rect width="32" height="32" rx="16" fill="#ECEDEE"/><path d="M6.857 16c1.524-3.048 3.048-4.571 4.572-4.571 1.523 0 3.047 1.523 4.571 4.571 1.524 3.048 3.048 4.571 4.572 4.571 1.523 0 3.047-1.523 4.57-4.571" stroke="#151718" stroke-linecap="round"/><path d="M46.78 24h-2.04l-4.02-12h1.968l3.096 9.156L48.844 12h2.076l3.072 9.156L57.052 12h1.992l-4.02 12h-2.052l-3.108-9.24L46.78 24Zm23.377-12h2.017v12h-2.029l-.072-2.028a4.592 4.592 0 0 1-1.56 1.692c-.656.432-1.436.648-2.34.648a6.257 6.257 0 0 1-2.483-.492 6.708 6.708 0 0 1-2.04-1.38 6.532 6.532 0 0 1-1.368-2.04 6.257 6.257 0 0 1-.492-2.484c0-.856.16-1.664.48-2.424.32-.76.763-1.424 1.331-1.992a6.254 6.254 0 0 1 1.992-1.344 5.967 5.967 0 0 1 2.412-.492c.953 0 1.785.224 2.496.672a5.139 5.139 0 0 1 1.728 1.716L70.157 12Zm-3.935 10.356c.8 0 1.488-.2 2.064-.6a3.755 3.755 0 0 0 1.308-1.608c.303-.672.44-1.416.407-2.232a4.995 4.995 0 0 0-.564-2.172 4.04 4.04 0 0 0-1.391-1.536c-.585-.384-1.265-.576-2.04-.576-.793 0-1.513.2-2.16.6-.648.4-1.156.936-1.524 1.608-.36.672-.525 1.42-.492 2.244.04.792.264 1.512.672 2.16a4.653 4.653 0 0 0 1.583 1.548 4.222 4.222 0 0 0 2.137.564ZM80.962 24h-2.58l-4.38-12.024h2.147l3.516 9.684 3.516-9.684h2.148L80.961 24Zm10.992.312a5.607 5.607 0 0 1-3.024-.852 6.388 6.388 0 0 1-2.172-2.28c-.536-.96-.804-2.02-.804-3.18 0-.88.156-1.7.468-2.46.312-.768.74-1.44 1.284-2.016a6.022 6.022 0 0 1 1.92-1.368 5.602 5.602 0 0 1 2.328-.492c.904 0 1.732.184 2.484.552a5.61 5.61 0 0 1 1.944 1.512c.544.648.948 1.4 1.212 2.256.272.856.372 1.772.3 2.748h-9.792c.096.68.32 1.288.672 1.824.352.528.8.948 1.344 1.26a3.76 3.76 0 0 0 1.836.48c.72 0 1.372-.184 1.956-.552a4.232 4.232 0 0 0 1.416-1.536l2.052.48a6.324 6.324 0 0 1-2.172 2.616 5.57 5.57 0 0 1-3.252 1.008Zm-3.912-7.164h7.824a3.93 3.93 0 0 0-.648-1.836 4.252 4.252 0 0 0-1.404-1.344 3.587 3.587 0 0 0-1.86-.504 3.59 3.59 0 0 0-1.848.492 4.175 4.175 0 0 0-1.392 1.332 4.372 4.372 0 0 0-.672 1.86Zm22.663.48V24h-2.016v-6.324a4.45 4.45 0 0 0-.468-2.04 3.727 3.727 0 0 0-1.248-1.464 2.968 2.968 0 0 0-1.728-.54c-.664 0-1.248.18-1.752.54-.496.36-.884.848-1.164 1.464a4.995 4.995 0 0 0-.408 2.04V24h-2.028V6h2.016v7.68c.376-.704.864-1.212 1.464-1.524.6-.32 1.28-.48 2.04-.48 1.048 0 1.964.272 2.748.816a5.5 5.5 0 0 1 1.848 2.172c.448.904.68 1.892.696 2.964Zm2.407.732V12h2.016v6.312c0 .744.156 1.424.468 2.04a3.9 3.9 0 0 0 1.272 1.464c.536.36 1.14.54 1.812.54.672 0 1.264-.18 1.776-.54a3.69 3.69 0 0 0 1.212-1.464 4.648 4.648 0 0 0 .444-2.04V12h2.016v12h-2.016v-1.86a5.065 5.065 0 0 1-1.596 1.596 3.948 3.948 0 0 1-2.124.588c-1.048 0-1.968-.272-2.76-.816a5.537 5.537 0 0 1-1.836-2.172c-.44-.904-.668-1.896-.684-2.976Zm19.97-6.696c1.168 0 2.228.284 3.18.852a6.421 6.421 0 0 1 2.292 2.292c.568.952.852 2.012.852 3.18 0 .872-.164 1.692-.492 2.46a6.427 6.427 0 0 1-1.368 2.016 6.346 6.346 0 0 1-2.016 1.356 6.111 6.111 0 0 1-2.448.492c-.928 0-1.736-.216-2.424-.648a5.003 5.003 0 0 1-1.632-1.716V24h-2.016V6h2.016v8.028a4.897 4.897 0 0 1 1.632-1.704c.688-.44 1.496-.66 2.424-.66Zm-.024 10.68c.792 0 1.512-.196 2.16-.588a4.416 4.416 0 0 0 1.548-1.572 4.308 4.308 0 0 0 .576-2.196c0-.816-.196-1.552-.588-2.208a4.385 4.385 0 0 0-1.56-1.572 4.049 4.049 0 0 0-2.136-.588c-.784 0-1.468.196-2.052.588a3.944 3.944 0 0 0-1.344 1.584 5.099 5.099 0 0 0-.468 2.196c0 .808.156 1.544.468 2.208.32.656.772 1.18 1.356 1.572.584.384 1.264.576 2.04.576Z" fill="#ECEDEE"/></svg>